<?xml version="1.0" encoding="utf-8"?>
<!-- Generator: Adobe Illustrator 24.0.2, SVG Export Plug-In . SVG Version: 6.00 Build 0)  -->
<svg version="1.1" id="Layer_1" xmlns="http://www.w3.org/2000/svg" xmlns:xlink="http://www.w3.org/1999/xlink" x="0px" y="0px"
	 viewBox="0 0 1000 600" style="enable-background:new 0 0 1000 600;" xml:space="preserve">
<style type="text/css">
	.st0{fill:none;stroke:#262626;stroke-miterlimit:10;}
	.st1{fill:#262626;}
</style>
<g>
	<g>
		<polyline class="st0" points="8.55,90.31 377.28,90.31 377.28,234.31 838.5,234.31 838.5,249.28 369.44,249.28 369.44,100.29 
			20.13,100.29 20.13,510.9 40.8,510.9 40.8,118.11 352.33,118.11 352.33,260.68 838.5,260.68 838.5,277.08 340.21,277.08 
			340.21,131.65 60.05,131.65 60.05,493.79 77.87,493.79 77.87,148.05 324.52,148.05 324.52,290.62 838.5,290.62 838.5,314.86 
			311.69,314.86 311.69,163.73 98.54,163.73 98.54,474.54 118.5,474.54 118.5,185.12 292.45,185.12 292.45,333.4 838.5,333.4 
			838.5,349.79 279.61,349.79 279.61,200.8 141.32,200.8 141.32,458.86 159.14,458.86 159.14,217.91 264.64,217.91 264.64,366.19 
			838.5,366.19 838.5,386.15 253.24,386.15 253.24,231.46 176.96,231.46 176.96,436.76 193.36,436.76 193.36,251.42 238.27,251.42 
			238.27,399.69 976.4,399.69 		"/>
		<g>
			<polygon class="st1" points="966.46,411.96 964.41,409.77 975.25,399.7 964.41,389.62 966.46,387.43 979.65,399.7 			"/>
		</g>
	</g>
</g>
</svg>
