<svg xmlns="http://www.w3.org/2000/svg" viewBox="0 0 300 300" style="enable-background:new 0 0 300 300" xml:space="preserve">
  <path d="M150.5 264.84c-2.2-1.9-15.27-13.59-22.35-29.51l-.25-.57-.5.37c-14.15 10.4-31.51 14.03-34.38 14.58-.96-2.74-6.43-19.41-4.6-36.74l.07-.62-.62.07a70.6 70.6 0 0 1-7.67.41c-14.44 0-27.04-4.16-29.4-4.98.54-2.85 4.13-20.02 14.38-34.11l.37-.5-.57-.25c-16.08-7.05-27.91-20.27-29.82-22.49 1.9-2.2 13.59-15.27 29.51-22.35l.57-.25-.37-.5c-10.4-14.15-14.03-31.51-14.58-34.38 2.35-.82 14.96-4.98 29.4-4.98 2.51 0 4.98.13 7.34.38l.62.07-.07-.62c-1.93-17.45 3.6-34.3 4.57-37.07 2.86.54 20.02 4.14 34.11 14.38l.5.37.25-.57c7.05-16.08 20.27-27.91 22.49-29.82 2.2 1.9 15.27 13.59 22.35 29.51l.25.57.5-.37c14.14-10.4 31.51-14.03 34.38-14.58.96 2.75 6.43 19.41 4.6 36.74l-.07.62.62-.07a70.6 70.6 0 0 1 7.67-.41c14.44 0 27.04 4.15 29.4 4.98-.54 2.86-4.13 20.02-14.38 34.12l-.37.5.57.25c16.08 7.05 27.91 20.27 29.82 22.49-1.9 2.2-13.59 15.27-29.51 22.35l-.57.25.37.5c10.4 14.15 14.03 31.51 14.58 34.38-2.35.82-14.96 4.98-29.39 4.98-2.51 0-4.98-.13-7.34-.38l-.62-.07.07.62c1.94 17.46-3.6 34.3-4.57 37.07-2.85-.54-20.02-4.13-34.11-14.38l-.5-.37-.25.57c-7.06 16.08-20.28 27.9-22.5 29.81z" style="fill:#3a9400"/>
  <path d="M149.5 35.82c2.92 2.56 15.14 13.87 21.9 29.05l.5 1.14 1-.74c13.48-9.91 29.92-13.64 33.76-14.41 1.24 3.68 6.18 19.6 4.43 36.11l-.13 1.24 1.24-.14c2.44-.27 5-.41 7.61-.41 13.67 0 25.69 3.75 28.83 4.81-.76 3.8-4.44 20.05-14.21 33.49l-.73 1 1.14.5c15.32 6.72 26.78 19.09 29.35 22.03-2.56 2.92-13.87 15.14-29.05 21.9l-1.14.5.74 1c9.91 13.48 13.64 29.92 14.41 33.76-3.13 1.06-15.16 4.81-28.82 4.81-2.49 0-4.95-.13-7.29-.37l-1.24-.13.14 1.24c1.84 16.63-3.15 32.74-4.4 36.44-3.81-.76-20.06-4.45-33.49-14.21l-1.01-.73-.5 1.14c-6.72 15.32-19.09 26.78-22.03 29.35-2.92-2.56-15.15-13.88-21.9-29.05l-.5-1.14-1 .74c-13.48 9.91-29.92 13.64-33.76 14.41-1.24-3.68-6.18-19.6-4.44-36.11l.13-1.24-1.24.14c-2.44.27-5 .41-7.61.41-13.67 0-25.69-3.75-28.83-4.81.76-3.81 4.45-20.06 14.21-33.49l.73-1.01-1.14-.5c-15.32-6.72-26.78-19.09-29.35-22.03 2.56-2.92 13.88-15.15 29.05-21.9l1.14-.5-.74-1c-9.91-13.48-13.64-29.92-14.41-33.76 3.13-1.06 15.16-4.81 28.82-4.81 2.5 0 4.95.13 7.29.37l1.24.13-.14-1.24c-1.84-16.63 3.15-32.74 4.4-36.44 3.81.76 20.06 4.45 33.49 14.21l1 .73.5-1.14c6.74-15.31 19.11-26.76 22.05-29.34m0-1.32s-15.13 12.45-22.95 30.27c-15.63-11.36-34.74-14.55-34.74-14.55s-6.88 18.35-4.74 37.69c-2.49-.26-4.97-.38-7.39-.38-16.23 0-29.97 5.15-29.97 5.15s3.22 19.33 14.74 35.01C46.81 135.54 34.5 150.5 34.5 150.5s12.45 15.13 30.27 22.95c-11.36 15.63-14.55 34.74-14.55 34.74s13.74 5.15 29.97 5.15c2.53 0 5.11-.12 7.72-.41-2.03 19.21 4.77 37.36 4.77 37.36s19.33-3.22 35.01-14.74c7.85 17.65 22.81 29.97 22.81 29.97s15.13-12.45 22.95-30.27c15.63 11.36 34.74 14.55 34.74 14.55s6.88-18.35 4.74-37.69c2.49.26 4.97.38 7.39.38 16.23 0 29.97-5.15 29.97-5.15s-3.22-19.33-14.74-35.01c17.65-7.85 29.97-22.81 29.97-22.81s-12.45-15.13-30.27-22.95c11.36-15.63 14.55-34.74 14.55-34.74s-13.74-5.15-29.97-5.15c-2.53 0-5.11.12-7.72.41 2.03-19.21-4.77-37.36-4.77-37.36s-19.33 3.22-35.01 14.74C164.46 46.81 149.5 34.5 149.5 34.5z"/>
  <g>
    <circle cx="150" cy="150" r="59.5" style="fill:#ffba2a"/>
    <path d="M150 91c32.53 0 59 26.47 59 59s-26.47 59-59 59-59-26.47-59-59 26.47-59 59-59m0-1c-33.14 0-60 26.86-60 60s26.86 60 60 60 60-26.86 60-60-26.86-60-60-60z"/>
  </g>
</svg>